<svg width="453" height="341" viewBox="0 0 453 341" fill="none">
<rect width="115" height="111" rx="10" transform="matrix(-1 0 0 1 230 0)" fill="#6E00FF"/>
<rect width="115" height="111" rx="10" transform="matrix(-1 0 0 1 230 219)" fill="#6E00FF"/>
<rect width="115" height="111" rx="10" transform="matrix(-1 0 0 1 115 108)" fill="#6E00FF" fill-opacity="0.47"/>
<rect width="115" height="111" rx="10" transform="matrix(-1 0 0 1 344 108)" fill="white"/>
<rect width="115" height="111" rx="10" transform="matrix(-1 0 0 1 345 326)" fill="white"/>
<rect width="115" height="111" rx="10" transform="matrix(-1 0 0 1 453 219)" fill="white" fill-opacity="0.36"/>
<ellipse rx="55.5" ry="54" transform="matrix(-1 0 0 1 170.5 165)" fill="#FF64CB"/>
<ellipse rx="54" ry="53.5" transform="matrix(-1 0 0 1 284 272.5)" fill="#91FF00"/>
</svg>
